<svg id="Layer_1" data-name="Layer 1" xmlns="http://www.w3.org/2000/svg" viewBox="0 0 11.63 11.63">
    <defs>
        <style>
            .cls-1 {
                fill: #231f20;
            }

            .cls-2 {
                fill: #E4C778;
                text-align: center;
                opacity: .8;
            }
        </style>
    </defs>
    <title>Untitled-2</title>
    <g>
    <path class="cls-1" d="M133.79,62.28a5.57,5.57,0,0,1,2.9.79,5.82,5.82,0,0,1,2.12,2.12,5.74,5.74,0,0,1,0,5.81,5.82,5.82,0,0,1-2.12,2.12,5.74,5.74,0,0,1-5.81,0A5.82,5.82,0,0,1,128.76,71a5.74,5.74,0,0,1,0-5.81,5.82,5.82,0,0,1,2.12-2.12A5.58,5.58,0,0,1,133.79,62.28Zm0,1.13a4.57,4.57,0,0,0-2.35.63,4.67,4.67,0,0,0-1.71,1.71,4.68,4.68,0,0,0,0,4.69,4.67,4.67,0,0,0,1.71,1.71,4.68,4.68,0,0,0,4.69,0,4.67,4.67,0,0,0,1.71-1.71,4.68,4.68,0,0,0,0-4.69A4.67,4.67,0,0,0,136.13,64,4.56,4.56,0,0,0,133.79,63.41Z"
        transform="translate(-127.97 -62.28)" />
    <path class="cls-2" d="M158.08,68.1a1.88,1.88,0,1,1-1.88-1.88A1.88,1.88,0,0,1,158.08,68.1Z" transform="translate(-150.25 -62.28)" />
    </g>
</svg>