<svg xmlns="http://www.w3.org/2000/svg" viewBox="0 0 48.36 39.09">
    <defs>
        <style>
            .w {
                fill: #ffffff;
            }
        </style>
    </defs>
    <title>Asset 1</title>
    <g id="Layer_2" data-name="Layer 2">
        <g id="Layer_1-2" data-name="Layer 1">
            <path class="w" d="M48.35.19c0,.33-.33.65-1.12,1-1.08.4-1.64.62-1.69.65a5.12,5.12,0,0,0-1.78,3,28.64,28.64,0,0,0-1.46,4,8.49,8.49,0,0,1-.77,2.37c-.64,1.4-1,2.14-1,2.2,0,.25,0,.59,0,1a3.25,3.25,0,0,1-.07.38q-2.18,6.56-6.38,19.8c-.25.94-.5,1.87-.77,2.79-.4,1.11-.94,1.66-1.62,1.66a1.87,1.87,0,0,1-.79-.21,3.34,3.34,0,0,1,.16-.65,2.24,2.24,0,0,0,.12-.78,2.52,2.52,0,0,0-.49-.49,1,1,0,0,1-.33-.77c0-.24,0-.58-.07-1-.28-.63-.65-1.62-1.1-3q-.07-.7-.12-1.41a2.88,2.88,0,0,0-.75-1.71c0-.14-.08-.33-.14-.58a2.58,2.58,0,0,0,.16-.89A2.85,2.85,0,0,0,27.73,26l-1.08-1.32c.19-.25.42-.6.7-1.05a6.19,6.19,0,0,1-.84-1.22c0-.33,0-.85-.1-1.57-.21-.38-.53-.95-.93-1.74a1.45,1.45,0,0,1,0-.89A8.38,8.38,0,0,0,25.62,17a1.09,1.09,0,0,0-.54-.17.92.92,0,0,0-.85.68c-.29,1.08-.74,2.66-1.33,4.74,0,.12-.49,1.24-1.34,3.35a16.2,16.2,0,0,0-1.12,3.82c-.24.56-.55,1.44-.94,2.65-.31,1.42-.57,2.5-.77,3.23a15.13,15.13,0,0,1-1.29,3.26,1.74,1.74,0,0,1-1.6,0,11.54,11.54,0,0,1-.79-2.76,20.43,20.43,0,0,0-.57-2.65,4.5,4.5,0,0,0-1.1-1.92,5.12,5.12,0,0,0-.11-2.81A11.2,11.2,0,0,1,12,27c0-.25,0-.57-.07-1a.6.6,0,0,0-.05-.26c-.3-.58-.67-1.46-1.13-2.65a3.15,3.15,0,0,0,0-1.08l.44-.42a9.66,9.66,0,0,0,2,1.24,1.68,1.68,0,0,0-.51-1.4,3.36,3.36,0,0,1-.78-1.27q-3.26-1.64-3.25-3.56a2.36,2.36,0,0,1,.18-.89,13.77,13.77,0,0,1-1.05-1.9c-.14-.72-.41-1.76-.8-3.14A9.69,9.69,0,0,1,6,9.23a18.42,18.42,0,0,0,.07-1.94c-.23-.38-.6-1-1.1-1.9-.25-.55-.51-1.09-.77-1.62A4.12,4.12,0,0,0,3,2.32,7.89,7.89,0,0,0,.38,1.57S.3,1.42,0,1.13A2.82,2.82,0,0,1,.4.59,20.43,20.43,0,0,1,4.66.82,4.73,4.73,0,0,0,6.14.7L7.29.52h5.39a1.33,1.33,0,0,0,.56-.26A1.44,1.44,0,0,1,13.8,0a1.08,1.08,0,0,1,.12.45c0,.34-.44.73-1.31,1.17s-1.32,1-1.34,1.61a6.49,6.49,0,0,0,.92,3.31,2.39,2.39,0,0,1,.19,1.12A7,7,0,0,0,12.49,9a57.39,57.39,0,0,0,2.16,5.6c0,.41.07,1,.12,1.76.11.17.25.41.42.7a4.28,4.28,0,0,0,.54,2,16.06,16.06,0,0,1,.86,1.83c.22.95.45,1.9.68,2.84a13.56,13.56,0,0,0,1.11,2.88.83.83,0,0,0,.84-.66,69.46,69.46,0,0,0,1.87-6.82,3.59,3.59,0,0,0,.59-.87,29.56,29.56,0,0,1,.82-3.18,8.66,8.66,0,0,0,.91-3,2.92,2.92,0,0,0-.16-1l-3-8.58a7.29,7.29,0,0,0-1.73-1.06A3.33,3.33,0,0,1,17.18.59c.45-.08,1.14-.21,2.06-.4,0,.36.06.58.17.65A6.5,6.5,0,0,0,20.72,1,17.1,17.1,0,0,0,23,.75C24.34.56,25.17.45,25.5.42a21.57,21.57,0,0,1,2.39.07,5.38,5.38,0,0,0,2.39-.3,1.5,1.5,0,0,1,.14.58c0,.3-.31.52-.94.66a3.37,3.37,0,0,0-1.75.82,1.64,1.64,0,0,0-.33,1.17,6.91,6.91,0,0,0,.3,1.64c.25,1,.4,1.57.45,1.85A10.11,10.11,0,0,0,28.1,9a15.65,15.65,0,0,1,1.29,1.76c.09.67.24,1.61.45,2.81,0,0,.27.88.77,2.58a9.72,9.72,0,0,1,.49,2.55c0,.18,0,.33,0,.47A5.7,5.7,0,0,1,32,20.23c0,.28.18,1.25.46,2.9a20.68,20.68,0,0,1,.33,3.05,5.33,5.33,0,0,0,.42.47,3.46,3.46,0,0,0,.9-.66c.39-.84,1-2.19,1.75-4,.21-1.3.53-3.1,1-5.41A5.7,5.7,0,0,1,38,15.12a11.23,11.23,0,0,1,1.22-4.74,9.21,9.21,0,0,1,.28-1.57A4,4,0,0,0,40.08,8,31.82,31.82,0,0,1,41,4.43a2,2,0,0,0-.33-2.34,3.09,3.09,0,0,0-1.34-.57A10.27,10.27,0,0,1,37.69,1C38,.45,38.88.27,40.24.42a1.91,1.91,0,0,1,.35.12,1.52,1.52,0,0,0,.52.12,3.57,3.57,0,0,0,.76-.19A5.2,5.2,0,0,1,43,.23a5.1,5.1,0,0,1,1.06.11,6.28,6.28,0,0,0,1,.13A19.73,19.73,0,0,0,48.35.19ZM10.73,20l-.63.42L10,20.16l.61-.43Z" />
        </g>
    </g>
</svg>